<svg xmlns="http://www.w3.org/2000/svg" fill="none" class="UserLogo variant-- " preserveAspectRatio="xMidYMid meet" viewBox="0 0 200 40"><path fill="var(--userLogoColor, #00CCE9)" d="M42.506 16.984a5.135 5.135 0 100-10.27 5.135 5.135 0 000 10.27z"/><path fill="var(--userLogoColor, url(#a-user-logo-Rocketium-))" d="M55.023 8.963c7.774 0 14.147 6.017 14.71 13.65h-1.211a11.762 11.762 0 01-.04 2.48h1.23c-.696 7.5-7.006 13.371-14.688 13.371s-13.99-5.925-14.685-13.427h1.226a16.536 16.536 0 01-.023-2.479h-1.228c.565-7.632 6.934-13.596 14.71-13.596"/><path fill="var(--userLogoColor, url(#b-user-logo-Rocketium-))" d="M61.421 32.753c3.925 0 7.107-4.064 7.107-9.077s-3.182-9.077-7.107-9.077c-3.925 0-7.107 4.064-7.107 9.077s3.182 9.077 7.107 9.077z"/><path fill="var(--userLogoColorAlt, #02005B)" d="M52.067 22.56H41.543a15.223 15.223 0 00.023 2.478H54.44c.509 3.718 3.045 6.543 6.096 6.543 3.419 0 6.19-3.546 6.19-7.92 0-4.375-2.773-7.92-6.191-7.92-3.127 0-5.712 2.967-6.13 6.819h-2.34z"/><path fill="var(--userLogoColor, #fff)" d="M60.53 26.31c.878 0 1.59-1.043 1.59-2.331s-.712-2.331-1.59-2.331c-.878 0-1.59 1.043-1.59 2.33 0 1.289.712 2.332 1.59 2.332zm2.79 2.59c.553 0 1-.464 1-1.036s-.447-1.036-1-1.036-1 .464-1 1.036.448 1.036 1 1.036zm-6.388-7.131s.201-2.366 2.015-2.168c1.813.197-.739-2.365-2.015-.495-1.144 1.676-.59 4.24 0 2.663z"/><path fill="var(--userLogoColor, #00CCE9)" d="M42.506 39.99a2.155 2.155 0 100-4.31 2.155 2.155 0 000 4.31z"/><path fill="var(--userLogoColor, #02005B)" d="M80.183 16.431c.505-.212 1.428-.32 2.069-.32v2.563c-.855 0-1.93.299-2.528.897-.598.626-.897 1.352-.897 2.177v5.36h-2.56V16.41h2.562v.833a5.47 5.47 0 011.354-.812zm7.729-.298a5.538 5.538 0 012.199.438 5.626 5.626 0 013 3 5.684 5.684 0 010 4.377 5.626 5.626 0 01-3 3 5.739 5.739 0 01-4.399 0 5.626 5.626 0 01-3-3 5.692 5.692 0 010-4.377 5.627 5.627 0 015.2-3.438zm0 2.563a3.065 3.065 0 00-2.178 5.23c.277.293.615.523.99.672.377.15.78.225 1.185.224a3.004 3.004 0 002.182-.895 3.066 3.066 0 000-4.335c-.627-.6-1.353-.9-2.18-.9v.004zm16.121 7.046a5.644 5.644 0 01-1.794 1.206 5.739 5.739 0 01-4.399 0 5.626 5.626 0 01-3-3 5.692 5.692 0 010-4.377 5.627 5.627 0 013-2.998 5.739 5.739 0 014.399 0c.67.283 1.279.692 1.794 1.206l-1.815 1.814a2.969 2.969 0 00-2.177-.9c-.825 0-1.551.299-2.177.897a3.067 3.067 0 000 4.334c.285.29.627.519 1.003.673.373.15.772.228 1.174.227.868 0 1.594-.3 2.178-.897l1.814 1.815zm5.124-3.97l5.339 5.337h-3.609l-3.544-3.545v3.545h-2.562V12.163h2.562v7.793l3.522-3.524h3.63l-5.338 5.34z"/><path fill="var(--userLogoColor, #02005B)" d="M121.691 23.052h-5.594c.144.33.355.629.619.875a3.004 3.004 0 002.178.897 2.996 2.996 0 001.555-.406l2.669 1.068a5.38 5.38 0 01-1.858 1.399 5.6 5.6 0 01-2.37.501 5.54 5.54 0 01-2.199-.438 5.626 5.626 0 01-3-3 5.686 5.686 0 010-4.377 5.623 5.623 0 013.004-2.998 5.737 5.737 0 014.398 0 5.63 5.63 0 013 3c.294.696.443 1.444.438 2.2.002.43-.048.861-.15 1.28h-2.69zm-2.797-4.359c-.826 0-1.552.299-2.178.897a2.905 2.905 0 00-.619.897h5.594a2.893 2.893 0 00-.62-.897 2.968 2.968 0 00-2.177-.897zm12.448 8.415h-2.349a3.39 3.39 0 01-1.366-.278 3.44 3.44 0 01-1.111-.757 3.682 3.682 0 01-.747-1.122 3.395 3.395 0 01-.278-1.366v-9.31l2.563-.64v4.078h2.135v2.563h-2.135v3.31a.928.928 0 00.278.683.9.9 0 00.661.277h1.708l.641 2.562zm.854-14.945h2.562v2.562h-2.562v-2.562zm0 14.946V16.432h2.562V27.11h-2.562zm13.964-10.677v10.677h-2.563v-.812c-.39.332-.83.602-1.302.801a4.098 4.098 0 01-1.626.31 4.403 4.403 0 01-3.362-1.473 4.837 4.837 0 01-.94-1.602 5.737 5.737 0 01-.331-1.964v-5.937h2.563v5.936c0 .67.249 1.253.747 1.75a2.385 2.385 0 001.755.727 2.414 2.414 0 001.773-.726 2.38 2.38 0 00.723-1.751v-5.936h2.563zm12.726-.299c.598 0 1.121.114 1.569.342a3 3 0 011.1.94c.294.42.511.89.64 1.387a6.52 6.52 0 01.212 1.709v6.597h-2.561v-6.597a1.751 1.751 0 00-.535-1.282 1.805 1.805 0 00-2.562 0 1.75 1.75 0 00-.534 1.282v6.597h-2.562v-6.597a1.746 1.746 0 00-.534-1.282 1.564 1.564 0 00-.587-.405 1.903 1.903 0 00-.689-.131c-.527 0-.961.178-1.302.533a1.747 1.747 0 00-.534 1.282v6.598h-2.562V16.43h2.561v.94a6.658 6.658 0 011.302-.886c.428-.228.904-.35 1.388-.353.641 0 1.168.128 1.581.384.436.28.814.643 1.11 1.068a4.624 4.624 0 011.495-1.036 4.81 4.81 0 012.004-.415z"/><defs><linearGradient id="a-user-logo-Rocketium-" x1="44.66" x2="65.447" y1="34.122" y2="13.335" gradientUnits="userSpaceOnUse"><stop stop-color="#3A1BFF"/><stop offset=".17" stop-color="#3233FC"/><stop offset=".52" stop-color="#1E70F4"/><stop offset="1" stop-color="#00CCE9"/></linearGradient><linearGradient id="b-user-logo-Rocketium-" x1="54.315" x2="68.528" y1="23.676" y2="23.676" gradientUnits="userSpaceOnUse"><stop offset=".24" stop-color="#002EAD"/><stop offset=".33" stop-color="#0036B0"/><stop offset=".47" stop-color="#004CB8"/><stop offset=".65" stop-color="#0070C6"/><stop offset=".85" stop-color="#00A1D9"/><stop offset="1" stop-color="#00CCE9"/></linearGradient></defs><title>Rocketium logo</title></svg>