<svg xmlns="http://www.w3.org/2000/svg" fill="none" class="UserLogo" preserveAspectRatio="xMidYMid meet" viewBox="0 0 200 40"><path fill="var(--userLogoColor, #0166B1)" d="M111.852 20c0 6.55-5.302 11.852-11.852 11.852V20h11.852zM100 8.148V20H88.148c0-6.55 5.302-11.852 11.852-11.852z"></path><path fill="var(--userLogoColorAlt, #fff)" d="M100 8.149c6.55 0 11.852 5.302 11.852 11.85H100V8.15zm-11.852 11.85H100v11.853c-6.55 0-11.852-5.302-11.852-11.852z"></path><path fill="var(--userLogoColor, #6F6F6F)" d="M100 8.148v.65c6.176 0 11.202 5.025 11.202 11.202h.649c0-6.545-5.305-11.852-11.851-11.852zm0 23.054c-6.176 0-11.202-5.025-11.202-11.202h-.65c0 6.545 5.306 11.852 11.852 11.852M100 0C88.955 0 80 8.955 80 20s8.955 20 20 20 20-8.955 20-20-8.955-20-20-20zm18.7 20c0 10.327-8.372 18.7-18.7 18.7S81.3 30.327 81.3 20 89.673 1.3 100 1.3s18.7 8.373 18.7 18.7z"></path><path fill="var(--userLogoColor, #6F6F6F)" d="M91.453 10.351c.64-.668 1.001-1.44.363-2.178-.348-.4-.933-.487-1.416-.29l-.049.018.016-.042c.071-.19.117-.797-.404-1.215a1.206 1.206 0 00-.894-.248c-.6.06-1.062.468-2.318 1.86-.438.49-.86.994-1.264 1.511l3.453 3.253c1.144-1.258 1.61-1.725 2.513-2.67v.001zm-4.505-.795c.696-.846 1.434-1.612 1.769-1.915.105-.096.22-.19.36-.229.227-.062.46.098.514.33.053.232-.094.452-.257.634-.368.412-1.717 1.813-1.717 1.813l-.67-.634zM88.3 10.83s1.313-1.38 1.742-1.82c.17-.175.28-.281.397-.339.152-.073.317-.088.466.01a.406.406 0 01.175.43c-.043.196-.205.384-.34.528L89 11.489l-.7-.66zm12.095-4.358l1.105-2.46.071-.218-.02.228.116 3.286c.396.038.791.09 1.183.156l-.18-4.868a26.011 26.011 0 00-1.651-.127L99.93 5.153l-.038.2-.04-.2-1.088-2.684c-.55.023-1.1.066-1.652.127l-.18 4.868c.393-.065.788-.117 1.184-.156l.116-3.286-.02-.228.07.22 1.106 2.458h1.007zm9.181 5.088c.272.29.663.756.883 1.04l4.045-2.551a27 27 0 00-.765-.942l-2.562 1.682-.174.15.13-.19 1.132-2.242-.8-.795-2.26 1.124-.19.129.151-.174 1.696-2.543a24.621 24.621 0 00-.951-.762L107.343 9.5c.325.248.754.614 1.028.862l2.417-1.246.156-.113-.114.153-1.254 2.404z"></path><title>BMW logo</title></svg>