<svg xmlns="http://www.w3.org/2000/svg" fill="none" class="UserLogo variant--Flat CustomersCaseStudyCard__logo" preserveAspectRatio="xMinYMin meet" viewBox="28 4 200 40"><path fill="var(--userLogoColor, #000)" fill-rule="evenodd" d="M71.56 26.746V12.891h3.716l4.707 10.354L84.62 12.89h3.559v13.855h-3.064v-8.06l-3.534 8.06h-3.265l-3.58-8.016v8.016H71.56zm28.947-5.364l-2.563-5.874-2.505 5.873h5.068zm-7.359 5.364h-3.603l6.193-13.855h4.435l6.237 13.855h-3.556l-1.227-2.76h-7.29l-1.189 2.76zm14.699 0V12.891h13.329v2.77h-10.11v2.752h8.669v2.704h-8.669v2.858h10.135v2.771h-13.354zm19.211-7.493h7.004V15.66h-7.004v3.592zm-3.265 7.493V12.891h11.155c1.49 0 2.355.855 2.355 2.323v4.655c0 1.071-.955 2.039-2.808 2.039-.105.005-.212 0-.322 0l3.247 4.838h-3.583l-3.079-4.737h-3.7v4.737h-3.265zm19.384.008h-1.105c-1.443 0-2.138-.827-2.138-2.032v-1.81h3.243v1.072h6.89v-2.836h-7.903c-1.262 0-2.171-.842-2.171-2.01v-4.114c0-1.245.989-2.125 2.193-2.125h9.035c1.221 0 2.065.905 2.065 2.213v1.653h-3.219V15.67h-6.89v2.729h7.88c1.164 0 2.229.764 2.229 2.234v3.955c0 1.347-.752 2.166-2.16 2.166h-7.949zm13.221 0V12.897h3.31v5.542l6.304-5.542h4.481l-7.52 6.437 7.791 7.42h-4.64l-6.416-6.302v6.302h-3.31z" clip-rule="evenodd"></path><path fill="var(--userLogoColor, #42B0D5)" fill-rule="evenodd" d="M54.397 4H31.608c-.959 0-1.878.38-2.555 1.055A3.578 3.578 0 0028 7.6v24.307c0 1.981 1.615 3.588 3.608 3.588h22.79c1.995 0 3.613-1.61 3.613-3.594V7.594C58.011 5.609 56.393 4 54.397 4zm-.686 7.507l-5.924 7.357 8.56 4.079-.006.029h-9.503l2.118 9.166-.029.017-5.924-7.357-5.924 7.357-.024-.012 2.113-9.172H29.67l-.011-.028 8.56-4.08-5.924-7.356.017-.023 8.56 4.079 2.113-9.167h.035l2.113 9.167 8.56-4.08.018.024z" clip-rule="evenodd"></path><title>Maersk logo</title></svg>